<svg width="50" height="18" viewBox="0 0 50 18" fill="none" xmlns="http://www.w3.org/2000/svg">
<path d="M11.3111 5.16619H9.31676C9.24006 4.74006 9.0973 4.36506 8.88849 4.04119C8.67969 3.71733 8.42401 3.44247 8.12145 3.21662C7.81889 2.99077 7.48011 2.82031 7.10511 2.70526C6.73438 2.5902 6.3402 2.53267 5.92259 2.53267C5.16832 2.53267 4.4929 2.7223 3.89631 3.10156C3.30398 3.48082 2.83523 4.03693 2.49006 4.76989C2.14915 5.50284 1.97869 6.39773 1.97869 7.45455C1.97869 8.51989 2.14915 9.41903 2.49006 10.152C2.83523 10.8849 3.30611 11.4389 3.9027 11.8139C4.49929 12.1889 5.17045 12.3764 5.91619 12.3764C6.32955 12.3764 6.72159 12.321 7.09233 12.2102C7.46733 12.0952 7.80611 11.9268 8.10866 11.7053C8.41122 11.4837 8.6669 11.2131 8.87571 10.8935C9.08878 10.5696 9.2358 10.1989 9.31676 9.78125L11.3111 9.78764C11.2045 10.4311 10.9979 11.0234 10.6911 11.5646C10.3885 12.1016 9.99858 12.5661 9.52131 12.9581C9.0483 13.3459 8.5071 13.6463 7.89773 13.8594C7.28835 14.0724 6.62358 14.179 5.90341 14.179C4.76989 14.179 3.75994 13.9105 2.87358 13.3736C1.98722 12.8324 1.28835 12.0589 0.776989 11.0533C0.269886 10.0476 0.0163353 8.84801 0.0163353 7.45455C0.0163353 6.05682 0.272017 4.85724 0.783381 3.85582C1.29474 2.85014 1.99361 2.07883 2.87997 1.5419C3.76634 1.00071 4.77415 0.730113 5.90341 0.730113C6.59801 0.730113 7.24574 0.830255 7.84659 1.03054C8.4517 1.22656 8.99503 1.51633 9.47656 1.89986C9.9581 2.27912 10.3565 2.74361 10.6719 3.29332C10.9872 3.83878 11.2003 4.46307 11.3111 5.16619ZM15.4324 8.17045V14H13.5211V0.909091H15.4068V5.77983H15.5282C15.7583 5.25142 16.1099 4.83168 16.5829 4.5206C17.0559 4.20952 17.6738 4.05398 18.4366 4.05398C19.1099 4.05398 19.698 4.19247 20.2008 4.46946C20.7079 4.74645 21.1 5.1598 21.377 5.70952C21.6582 6.25497 21.7988 6.93679 21.7988 7.75497V14H19.8876V7.98509C19.8876 7.26491 19.7022 6.70668 19.3315 6.31037C18.9608 5.9098 18.4451 5.70952 17.7846 5.70952C17.3329 5.70952 16.9281 5.8054 16.5701 5.99716C16.2164 6.18892 15.9373 6.47017 15.7328 6.84091C15.5325 7.20739 15.4324 7.65057 15.4324 8.17045ZM24.3493 14V4.18182H26.2605V14H24.3493ZM25.3145 2.6669C24.9821 2.6669 24.6966 2.55611 24.4579 2.33452C24.2235 2.10866 24.1064 1.8402 24.1064 1.52912C24.1064 1.21378 24.2235 0.945312 24.4579 0.723721C24.6966 0.497869 24.9821 0.384943 25.3145 0.384943C25.6468 0.384943 25.9302 0.497869 26.1646 0.723721C26.4032 0.945312 26.5225 1.21378 26.5225 1.52912C26.5225 1.8402 26.4032 2.10866 26.1646 2.33452C25.9302 2.55611 25.6468 2.6669 25.3145 2.6669ZM28.8317 14V4.18182H30.679V5.74148H30.7812C30.9602 5.21307 31.2756 4.79758 31.7273 4.49503C32.1832 4.18821 32.6989 4.0348 33.2741 4.0348C33.3935 4.0348 33.5341 4.03906 33.696 4.04759C33.8622 4.05611 33.9922 4.06676 34.0859 4.07955V5.90767C34.0092 5.88636 33.8729 5.86293 33.6768 5.83736C33.4808 5.80753 33.2848 5.79261 33.0888 5.79261C32.6371 5.79261 32.2344 5.88849 31.8807 6.08026C31.5313 6.26776 31.2543 6.52983 31.0497 6.86648C30.8452 7.19886 30.7429 7.57812 30.7429 8.00426V14H28.8317ZM35.7399 17.6818V4.18182H37.6064V5.77344H37.7662C37.877 5.56889 38.0368 5.33239 38.2456 5.06392C38.4544 4.79545 38.7441 4.56108 39.1149 4.3608C39.4856 4.15625 39.9757 4.05398 40.5851 4.05398C41.3777 4.05398 42.085 4.25426 42.7072 4.65483C43.3294 5.0554 43.8173 5.63281 44.171 6.38707C44.5289 7.14133 44.7079 8.04901 44.7079 9.11009C44.7079 10.1712 44.5311 11.081 44.1774 11.8395C43.8237 12.5937 43.3379 13.1754 42.72 13.5845C42.1021 13.9893 41.3968 14.1918 40.6042 14.1918C40.0076 14.1918 39.5197 14.0916 39.1404 13.8913C38.7654 13.6911 38.4714 13.4567 38.2583 13.1882C38.0453 12.9197 37.8812 12.6811 37.7662 12.4723H37.6511V17.6818H35.7399ZM37.6127 9.09091C37.6127 9.78125 37.7129 10.3864 37.9132 10.9062C38.1135 11.4261 38.4032 11.8331 38.7825 12.1271C39.1618 12.4169 39.6262 12.5618 40.176 12.5618C40.747 12.5618 41.2243 12.4105 41.6078 12.108C41.9913 11.8011 42.2811 11.3857 42.4771 10.8615C42.6774 10.3374 42.7775 9.74716 42.7775 9.09091C42.7775 8.44318 42.6795 7.86151 42.4835 7.34588C42.2917 6.83026 42.002 6.4233 41.6142 6.125C41.2306 5.8267 40.7512 5.67756 40.176 5.67756C39.622 5.67756 39.1532 5.82031 38.7697 6.10582C38.3904 6.39133 38.1028 6.78977 37.9068 7.30114C37.7108 7.8125 37.6127 8.40909 37.6127 9.09091ZM48.1085 14.1214C47.7591 14.1214 47.4586 13.9979 47.2072 13.7507C46.9558 13.4993 46.8301 13.1967 46.8301 12.843C46.8301 12.4936 46.9558 12.1953 47.2072 11.9482C47.4586 11.6967 47.7591 11.571 48.1085 11.571C48.4579 11.571 48.7583 11.6967 49.0098 11.9482C49.2612 12.1953 49.3869 12.4936 49.3869 12.843C49.3869 13.0774 49.3272 13.2926 49.2079 13.4886C49.0929 13.6804 48.9395 13.8338 48.7477 13.9489C48.5559 14.0639 48.3429 14.1214 48.1085 14.1214Z" fill="#1DA1F2"/>
</svg>
